<svg width="1600" height="900" viewBox="0 0 1600 900" fill="none" xmlns="http://www.w3.org/2000/svg" role="img" aria-labelledby="title desc">
  <title id="title">Mapa de decisao para insulfilm residencial</title>
  <desc id="desc">Composicao editorial com vidro residencial, luz solar filtrada e quatro criterios de escolha: calor, privacidade, luz e protecao UV.</desc>
  <defs>
    <linearGradient id="bg" x1="80" y1="60" x2="1500" y2="860" gradientUnits="userSpaceOnUse">
      <stop stop-color="#09182A"/>
      <stop offset="0.5" stop-color="#04080F"/>
      <stop offset="1" stop-color="#171106"/>
    </linearGradient>
    <linearGradient id="gold" x1="0" y1="0" x2="1" y2="1">
      <stop stop-color="#F9E19A"/>
      <stop offset="0.52" stop-color="#C9A227"/>
      <stop offset="1" stop-color="#7A6114"/>
    </linearGradient>
    <linearGradient id="glass" x1="416" y1="176" x2="1086" y2="742" gradientUnits="userSpaceOnUse">
      <stop stop-color="#D8F3FF" stop-opacity="0.22"/>
      <stop offset="0.45" stop-color="#88B7D2" stop-opacity="0.09"/>
      <stop offset="1" stop-color="#FFFFFF" stop-opacity="0.02"/>
    </linearGradient>
    <radialGradient id="sun" cx="0" cy="0" r="1" gradientUnits="userSpaceOnUse" gradientTransform="translate(1268 182) rotate(90) scale(158)">
      <stop stop-color="#F9E19A"/>
      <stop offset="0.52" stop-color="#C9A227" stop-opacity="0.55"/>
      <stop offset="1" stop-color="#C9A227" stop-opacity="0"/>
    </radialGradient>
    <filter id="shadow" x="-20%" y="-20%" width="140%" height="140%">
      <feDropShadow dx="0" dy="28" stdDeviation="28" flood-color="#000000" flood-opacity="0.38"/>
    </filter>
    <pattern id="grid" width="80" height="80" patternUnits="userSpaceOnUse">
      <path d="M80 0H0V80" stroke="#FFFFFF" stroke-opacity="0.045" stroke-width="1"/>
    </pattern>
    <clipPath id="windowClip">
      <rect x="430" y="174" width="570" height="552" rx="34"/>
    </clipPath>
  </defs>

  <rect width="1600" height="900" rx="40" fill="#04080F"/>
  <rect x="56" y="56" width="1488" height="788" rx="36" fill="url(#bg)" stroke="#C9A227" stroke-opacity="0.22" stroke-width="2"/>
  <rect x="56" y="56" width="1488" height="788" rx="36" fill="url(#grid)"/>
  <circle cx="1268" cy="182" r="210" fill="url(#sun)"/>

  <g opacity="0.82">
    <path d="M1180 188L1016 318" stroke="#F9E19A" stroke-opacity="0.58" stroke-width="3"/>
    <path d="M1250 206L1016 390" stroke="#F9E19A" stroke-opacity="0.42" stroke-width="3"/>
    <path d="M1318 232L1016 468" stroke="#F9E19A" stroke-opacity="0.32" stroke-width="3"/>
    <path d="M1388 274L1016 548" stroke="#F9E19A" stroke-opacity="0.22" stroke-width="3"/>
  </g>

  <g filter="url(#shadow)">
    <rect x="394" y="138" width="642" height="624" rx="44" fill="#08111D" stroke="#FFFFFF" stroke-opacity="0.1"/>
    <rect x="430" y="174" width="570" height="552" rx="34" fill="url(#glass)" stroke="#C9A227" stroke-opacity="0.32" stroke-width="2"/>
    <g clip-path="url(#windowClip)">
      <rect x="430" y="174" width="570" height="552" fill="#091522" opacity="0.42"/>
      <path d="M468 696L620 536L742 640L892 468L1038 636V760H468V696Z" fill="#0D1D2F"/>
      <path d="M430 304H1000M430 450H1000M430 596H1000M572 174V726M714 174V726M856 174V726" stroke="#FFFFFF" stroke-opacity="0.14" stroke-width="2"/>
      <path d="M1008 310C890 368 752 408 596 430" stroke="#C9A227" stroke-opacity="0.52" stroke-width="10" stroke-linecap="round"/>
      <path d="M1008 386C872 452 736 496 552 518" stroke="#F9E19A" stroke-opacity="0.22" stroke-width="18" stroke-linecap="round"/>
      <rect x="430" y="174" width="570" height="552" fill="#C9A227" opacity="0.055"/>
    </g>
  </g>

  <g filter="url(#shadow)">
    <rect x="116" y="150" width="330" height="126" rx="28" fill="#08111D" stroke="#C9A227" stroke-opacity="0.25"/>
    <text x="152" y="202" fill="#F9E19A" font-size="24" font-weight="800" font-family="Montserrat, Arial, sans-serif">Calor</text>
    <text x="152" y="238" fill="#B7C1D0" font-size="18" font-family="Inter, Arial, sans-serif">controle termico sem apagar a luz</text>
  </g>
  <g filter="url(#shadow)">
    <rect x="138" y="612" width="340" height="126" rx="28" fill="#08111D" stroke="#C9A227" stroke-opacity="0.22"/>
    <text x="174" y="664" fill="#F9E19A" font-size="24" font-weight="800" font-family="Montserrat, Arial, sans-serif">Privacidade</text>
    <text x="174" y="700" fill="#B7C1D0" font-size="18" font-family="Inter, Arial, sans-serif">dia, noite, vista e fachada</text>
  </g>
  <g filter="url(#shadow)">
    <rect x="1064" y="572" width="382" height="126" rx="28" fill="#08111D" stroke="#C9A227" stroke-opacity="0.22"/>
    <text x="1100" y="624" fill="#F9E19A" font-size="24" font-weight="800" font-family="Montserrat, Arial, sans-serif">Protecao UV</text>
    <text x="1100" y="660" fill="#B7C1D0" font-size="18" font-family="Inter, Arial, sans-serif">moveis, pisos, cortinas e pele</text>
  </g>
  <g filter="url(#shadow)">
    <rect x="1084" y="314" width="330" height="126" rx="28" fill="#08111D" stroke="#C9A227" stroke-opacity="0.22"/>
    <text x="1120" y="366" fill="#F9E19A" font-size="24" font-weight="800" font-family="Montserrat, Arial, sans-serif">Luz natural</text>
    <text x="1120" y="402" fill="#B7C1D0" font-size="18" font-family="Inter, Arial, sans-serif">conforto sem peso visual</text>
  </g>

  <path d="M446 224L328 214" stroke="#C9A227" stroke-opacity="0.45" stroke-width="3" stroke-linecap="round"/>
  <path d="M468 646L362 674" stroke="#C9A227" stroke-opacity="0.45" stroke-width="3" stroke-linecap="round"/>
  <path d="M994 626L1108 636" stroke="#C9A227" stroke-opacity="0.45" stroke-width="3" stroke-linecap="round"/>
  <path d="M998 366L1112 376" stroke="#C9A227" stroke-opacity="0.45" stroke-width="3" stroke-linecap="round"/>

  <g>
    <text x="112" y="118" fill="#FFFFFF" font-size="42" font-weight="900" font-family="Montserrat, Arial, sans-serif">Como escolher insulfilm residencial</text>
    <text x="112" y="802" fill="#C9A227" font-size="22" font-weight="800" font-family="Montserrat, Arial, sans-serif">Diagnostico primeiro. Tecnologia depois. Resultado premium sempre.</text>
  </g>
</svg>
